HIERARCHY
ROOT hip
{
	OFFSET 0.000000 0.000000 0.000000 
	CHANNELS 6 Xposition Yposition Zposition Xrotation Zrotation Yrotation
	JOINT abdomen
	{
		OFFSET 0.000000 3.402643 0.000000 
		CHANNELS 3 Xrotation Zrotation Yrotation
		JOINT chest
		{
			OFFSET 0.000000 8.438565 -0.680529 
			CHANNELS 3 Xrotation Zrotation Yrotation
			JOINT neck
			{
				OFFSET 0.000000 10.207942 -0.272212 
				CHANNELS 3 Xrotation Zrotation Yrotation
				JOINT head
				{
					OFFSET 0.000000 3.130431 0.000000 
					CHANNELS 3 Xrotation Zrotation Yrotation
					End Site
					{
						OFFSET 0.000000 3.130435 0.000000 
					}
				}
			}
			JOINT lCollar
			{
				OFFSET 3.470700 6.669187 -0.816635 
				CHANNELS 3 Yrotation Zrotation Xrotation
				JOINT lShldr
				{
					OFFSET 3.198488 0.000000 0.000000 
					CHANNELS 3 Zrotation Yrotation Xrotation
					JOINT lForeArm
					{
						OFFSET 10.139888 0.000000 0.000000 
						CHANNELS 3 Yrotation Zrotation Xrotation
						JOINT lHand
						{
							OFFSET 8.370511 0.000000 0.000000 
							CHANNELS 3 Zrotation Yrotation Xrotation
							End Site
							{
								OFFSET 4.083176 0.000000 0.000000 
							}
						}
					}
				}
			}
			JOINT rCollar
			{
				OFFSET -3.470700 6.669187 -0.816635 
				CHANNELS 3 Yrotation Zrotation Xrotation
				JOINT rShldr
				{
					OFFSET -3.198488 0.000000 0.000000 
					CHANNELS 3 Zrotation Yrotation Xrotation
					JOINT rForeArm
					{
						OFFSET -10.139888 0.000000 0.000000 
						CHANNELS 3 Yrotation Zrotation Xrotation
						JOINT rHand
						{
							OFFSET -8.370511 0.000000 0.000000 
							CHANNELS 3 Zrotation Yrotation Xrotation
							End Site
							{
								OFFSET -4.083176 0.000000 0.000000 
							}
						}
					}
				}
			}
		}
	}
	JOINT lThigh
	{
		OFFSET 5.308129 -1.633274 1.361059 
		CHANNELS 3 Xrotation Zrotation Yrotation
		JOINT lShin
		{
			OFFSET -2.041588 -20.007561 0.000000 
			CHANNELS 3 Xrotation Zrotation Yrotation
			JOINT lFoot
			{
				OFFSET 0.000000 -19.190928 -1.224953 
				CHANNELS 3 Xrotation Yrotation Zrotation
				End Site
				{
					OFFSET 0.000000 -2.449906 4.627600 
				}
			}
		}
	}
	JOINT rThigh
	{
		OFFSET -5.308129 -1.633274 1.361059 
		CHANNELS 3 Xrotation Zrotation Yrotation
		JOINT rShin
		{
			OFFSET 2.041588 -20.007561 0.000000 
			CHANNELS 3 Xrotation Zrotation Yrotation
			JOINT rFoot
			{
				OFFSET 0.000000 -19.190928 -1.224953 
				CHANNELS 3 Xrotation Yrotation Zrotation
				End Site
				{
					OFFSET 0.000000 -2.449906 4.627600 
				}
			}
		}
	}
}
MOTION
Frames: 18
Frame Time: 0.011111
-4.423432 52.399776 2.401627 0.641677 2.399868 -47.916439 21.601553 -2.874063 0.407762 -19.911659 -1.460476 0.269562 -17.391771 -3.518014 1.222835 26.031805 8.899300 2.928734 2.424333 -4.683778 1.783845 -65.870552 -34.858685 22.479210 -46.961140 6.938234 6.952055 8.524705 12.647240 -32.063854 -2.738486 -1.140572 2.095526 70.403557 19.172531 31.588512 57.052727 -8.970220 11.107222 -8.534408 -12.637552 48.812363 -1.131535 6.382280 -8.550516 22.019211 -5.703134 -3.790177 -28.102472 9.434519 2.522720 -5.026423 -9.830280 13.582254 25.202215 5.551766 4.202971 -33.245834 -14.003245 -6.429235 
-4.396367 52.401585 2.387191 0.633943 2.478184 -47.476372 21.572956 -2.935553 0.406948 -19.980040 -1.460153 0.271305 -17.292564 -3.509124 1.251176 25.923847 9.036547 3.017993 2.424333 -4.683778 1.783845 -65.727638 -35.173264 23.002827 -47.002781 6.951325 6.970696 8.524705 12.647240 -30.061899 -2.738486 -1.140572 2.095526 70.365295 19.231892 32.104641 57.243866 -8.995410 11.195546 -8.534408 -12.637552 50.745949 -1.345043 6.349799 -8.360664 22.119678 -5.703677 -3.809751 -27.617851 9.187778 2.266654 -5.056512 -9.870388 13.582021 25.281586 5.551877 4.229421 -33.570091 -14.222054 -6.667735 
-4.366895 52.402187 2.386891 0.653159 2.506570 -46.987087 21.543665 -2.900039 0.370134 -20.038685 -1.440595 0.253021 -17.270473 -3.473700 1.299540 25.989582 9.076514 3.135866 2.424333 -4.683778 1.783845 -65.684639 -35.496185 23.270899 -46.930080 6.930212 6.943184 8.524705 12.647240 -28.636120 -2.738486 -1.140572 2.095526 70.248558 19.322094 32.598343 57.382263 -9.013351 11.252126 -8.534408 -12.637552 52.660015 -1.569494 6.329474 -8.376631 22.232887 -5.693110 -3.827199 -27.252146 8.983142 2.064607 -5.027374 -9.909795 13.384159 25.311563 5.552047 4.232084 -33.844631 -14.319704 -6.828435 
-4.331409 52.399479 2.390199 0.666297 2.478316 -46.459309 21.582579 -2.785456 0.287285 -20.146259 -1.362430 0.225296 -17.260319 -3.486863 1.323082 26.067200 9.032342 3.168420 2.424333 -4.683778 1.783845 -65.702156 -35.847549 22.860968 -46.815979 6.895183 6.888625 8.524705 12.647240 -28.870497 -2.738486 -1.140572 2.095526 70.032898 19.414217 33.098179 57.520473 -9.031447 11.320162 -8.534408 -12.637552 54.486183 -1.746072 6.362607 -8.440437 22.323166 -5.693812 -3.844951 -26.953434 8.709163 1.871507 -4.954701 -9.904158 13.186946 25.361210 5.552285 4.246224 -34.090794 -14.464659 -7.010022 
-4.293216 52.395874 2.392004 0.625156 2.462099 -45.933281 21.680214 -2.734763 0.261724 -20.244001 -1.323146 0.217220 -17.241337 -3.468095 1.284667 26.081556 8.987863 3.090676 2.424333 -4.683778 1.783845 -65.631416 -36.268539 22.815882 -46.744167 6.880503 6.869530 8.524705 12.647240 -28.841198 -2.738486 -1.140572 2.095526 69.917404 19.562977 33.377026 57.647888 -9.046698 11.376831 -8.534408 -12.637552 56.390484 -1.852091 6.329772 -8.557872 22.391430 -5.703507 -3.852833 -26.659393 8.446648 1.697914 -4.841031 -9.937586 13.007550 25.415644 5.531880 4.237568 -34.283535 -14.644077 -7.187224 
-4.258031 52.388054 2.397116 0.473160 2.491834 -45.430393 21.779261 -2.831889 0.212719 -20.322104 -1.352141 0.219539 -17.257917 -3.340533 1.267492 26.217632 8.937939 3.117253 2.424333 -4.683778 1.783845 -65.489571 -36.631920 23.198870 -46.733604 6.875357 6.860996 8.524705 12.647240 -28.011120 -2.738486 -1.140572 2.095526 69.921242 19.738720 33.699295 57.731895 -9.053377 11.411481 -8.534408 -12.637552 58.538921 -1.862048 6.145029 -8.811274 22.456385 -5.683400 -3.865130 -26.488646 8.299695 1.571782 -4.705770 -10.096122 12.856166 25.493378 5.541556 4.256264 -34.533165 -14.754983 -7.346652 
-4.224349 52.379932 2.395011 0.325254 2.531157 -44.917892 21.869375 -2.929629 0.109180 -20.380743 -1.332754 0.201030 -17.302969 -3.212810 1.283065 26.328302 8.929156 3.204065 2.424333 -4.683778 1.783845 -65.407822 -37.004219 23.323616 -46.764652 6.883491 6.869796 8.524705 12.647240 -27.181042 -2.738486 -1.140572 2.095526 69.885727 19.924994 34.619141 58.348522 -9.122641 11.675763 -8.534408 -12.637552 61.898296 -1.912854 5.974932 -8.974276 22.536900 -5.679881 -3.900671 -26.238073 8.098053 1.435793 -4.617263 -10.251800 12.665785 25.573496 5.537696 4.281890 -34.816830 -14.933609 -7.577643 
-4.189766 52.379635 2.381779 0.321240 2.521321 -44.391003 21.918427 -2.919858 0.109594 -20.390594 -1.274136 0.200159 -17.319925 -3.135412 1.301714 26.313742 8.975491 3.284327 2.424333 -4.683778 1.783845 -65.398842 -37.502464 23.309462 -46.857601 6.908392 6.907177 8.524705 12.647240 -26.438852 -2.738486 -1.140572 2.095526 69.851700 20.179611 35.145058 58.795383 -9.169508 11.872456 -8.534408 -12.637552 64.720566 -2.088413 6.003351 -8.831173 22.627176 -5.684206 -3.890894 -25.752632 7.795161 1.192034 -4.555857 -10.227322 12.586843 25.652899 5.542143 4.280108 -35.170406 -15.158895 -7.837643 
-4.145557 52.381741 2.375764 0.338379 2.512183 -43.833633 21.956112 -2.890381 0.225304 -20.419868 -1.292992 0.230478 -17.242071 -3.156309 1.300858 26.164782 9.271531 3.329566 2.424333 -4.683778 1.783845 -65.360893 -38.040195 23.480190 -46.950565 6.933137 6.943489 8.524705 12.647240 -25.579481 -2.738486 -1.140572 2.095526 69.887619 20.462181 35.296032 59.040257 -9.194758 11.986938 -8.534408 -12.637552 67.171738 -2.291529 6.048050 -8.539468 22.670015 -5.673383 -3.892381 -25.084606 7.381517 0.840496 -4.547502 -10.229547 12.438547 25.774925 5.531618 4.289288 -35.527504 -15.225968 -8.034428 
-4.105862 52.375423 2.388996 0.192021 2.563698 -43.311882 22.015474 -2.977472 0.231981 -20.400248 -1.351467 0.240910 -17.143620 -3.153376 1.311185 25.983660 9.508159 3.404808 2.424333 -4.683778 1.783845 -65.263084 -38.578747 23.649570 -47.054127 6.962804 6.989665 8.524705 12.647240 -24.622452 -2.738486 -1.140572 2.095526 69.944466 20.793182 35.457558 59.136292 -9.205046 12.032814 -8.534408 -12.637552 69.574074 -2.310485 5.881581 -8.436976 22.712698 -5.660422 -3.912974 -24.692694 7.043334 0.634787 -4.451609 -10.408389 12.276564 25.916269 5.522541 4.309358 -35.943897 -15.204382 -8.229492 
-4.070676 52.362190 2.416363 -0.179559 2.754264 -42.733318 22.070139 -3.314792 0.097694 -20.243872 -1.410706 0.238172 -17.151007 -3.028918 1.283968 25.873442 9.640681 3.427316 2.424333 -4.683778 1.783845 -65.087555 -39.216045 23.748777 -47.281803 7.024349 7.081615 8.524705 12.647240 -23.323620 -2.738486 -1.140572 2.095526 70.053711 21.250145 35.718613 59.199905 -9.209899 12.057958 -8.534408 -12.637552 72.122902 -2.147009 5.437364 -8.526690 22.730387 -5.673608 -3.897688 -24.421448 6.697751 0.435394 -4.296579 -10.888317 11.900972 26.088125 5.512021 4.322872 -36.195328 -15.194244 -8.331711 
-4.027371 52.359783 2.432001 -0.413341 2.868711 -42.150780 22.122215 -3.513427 0.038107 -20.106993 -1.489388 0.235885 -17.294807 -2.872656 1.258569 25.979986 9.753110 3.473118 2.424333 -4.683778 1.783845 -65.012184 -39.851948 23.456308 -47.633972 7.115620 7.211789 8.524705 12.647240 -22.005259 -2.738486 -1.140572 2.095526 70.163765 21.736389 36.028538 59.189156 -9.207952 12.046207 -8.534408 -12.637552 74.710793 -2.036684 5.137711 -8.443458 22.699871 -5.673565 -3.904767 -23.938822 6.304431 0.172033 -4.197975 -11.199293 11.508712 26.288567 5.503129 4.367614 -36.466328 -15.209104 -8.470778 
-3.987975 52.362492 2.440120 -0.570246 2.921736 -41.642712 22.153690 -3.597172 -0.018188 -20.058147 -1.489717 0.224851 -17.389734 -2.815187 1.310650 26.113468 9.905759 3.626184 2.424333 -4.683778 1.783845 -65.004082 -40.359955 23.315630 -47.976456 7.206903 7.351645 8.524705 12.647240 -20.442760 -2.738486 -1.140572 2.095526 70.155022 22.224949 36.470947 59.199905 -9.209899 12.057958 -8.534408 -12.637552 77.386574 -1.971095 4.977763 -8.363164 22.639856 -5.673144 -3.889704 -23.443413 6.004562 -0.039538 -4.120263 -11.365815 11.217515 26.490162 5.492753 4.383733 -36.737953 -15.248135 -8.627478 
-3.952189 52.358582 2.445533 -0.707034 2.947504 -41.172771 22.184946 -3.728106 0.023480 -20.097267 -1.459864 0.254761 -17.280611 -2.772314 1.318503 26.049526 10.092070 3.719242 2.424333 -4.683778 1.783845 -65.015022 -40.818863 23.341486 -48.215351 7.268758 7.446356 8.524705 12.647240 -19.007214 -2.738486 -1.140572 2.095526 70.215309 22.692627 36.685303 59.136292 -9.205046 12.032814 -8.534408 -12.637552 79.798683 -1.903333 4.822845 -8.479780 22.605154 -5.693499 -3.880128 -23.305668 5.897610 -0.104295 -4.070019 -11.500460 11.036235 26.721241 5.482486 4.412181 -37.091312 -15.296005 -8.813120 
-3.903170 52.354671 2.450044 -0.786966 3.007587 -40.651081 22.204472 -3.838592 0.149212 -20.136265 -1.507806 0.305278 -17.327991 -2.627533 1.257226 26.137062 10.252114 3.689867 2.424333 -4.683778 1.783845 -65.099136 -41.393970 23.102003 -48.453403 7.323062 7.533264 8.524705 12.647240 -17.981825 -2.738486 -1.140572 2.095526 70.385254 23.177691 36.772968 59.157955 -9.208343 12.043428 -8.534408 -12.637552 82.562355 -1.921431 4.693447 -8.592642 22.547853 -5.680135 -3.872442 -22.961376 5.521755 -0.316378 -4.089215 -11.606667 10.748268 26.951588 5.473707 4.449800 -37.277256 -15.402038 -8.975257 
-3.854151 52.336933 2.459969 -0.958553 3.140825 -40.088451 22.217529 -4.039379 0.152545 -20.097187 -1.507744 0.323780 -17.465487 -2.563778 1.197644 26.247757 10.466414 3.652556 2.424333 -4.683778 1.783845 -65.213669 -41.968666 22.808002 -48.859856 7.428782 7.694337 8.524705 12.647240 -16.927137 -2.738486 -1.140572 2.095526 70.518021 23.761148 36.951069 59.241863 -9.211414 12.070934 -8.534408 -12.637552 85.745956 -1.938919 4.425776 -8.779826 22.516796 -5.683630 -3.870441 -22.747860 5.275937 -0.437369 -4.081797 -11.864841 10.485765 27.182795 5.463216 4.468436 -37.558594 -15.536124 -9.182167 
-3.810545 52.313774 2.467787 -1.072618 3.141965 -39.500175 22.257563 -4.060418 0.149758 -20.028868 -1.469070 0.321495 -17.449255 -2.747151 1.233109 26.095882 10.949059 3.759748 2.424333 -4.683778 1.783845 -65.300453 -42.621876 22.529686 -49.234436 7.518208 7.839109 8.524705 12.647240 -16.028702 -2.738486 -1.140572 2.095526 70.574142 24.453564 37.161602 59.241863 -9.211414 12.070934 -8.534408 -12.637552 88.490097 -1.929727 4.328778 -8.951124 22.507040 -5.683608 -3.859839 -22.512484 4.980392 -0.600301 -3.971243 -11.946217 10.185225 27.424225 5.443505 4.524699 -37.998711 -15.587528 -9.438293 
-3.760323 52.315575 2.451849 -1.090423 3.167827 -38.837749 22.248201 -4.026772 0.088521 -19.999607 -1.440176 0.300864 -17.500563 -2.904135 1.287253 26.136202 11.448341 3.903549 2.424333 -4.683778 1.783845 -65.287514 -43.286236 22.454386 -49.588692 7.602936 7.984641 8.524705 12.647240 -14.925184 -2.738486 -1.140572 2.095526 70.640434 25.145775 37.386417 59.263515 -9.214653 12.081569 -8.534408 -12.637552 90.902199 -2.059101 4.314629 -8.808920 22.516497 -5.683574 -3.880148 -21.975906 4.433056 -0.874437 -3.983822 -11.981617 9.878192 27.674807 5.434552 4.544526 -38.438385 -15.576359 -9.667143 
